<svg width="13" height="23" viewBox="0 0 13 23" fill="none" xmlns="http://www.w3.org/2000/svg">
<path d="M0.419929 21.6196C0.139976 21.3402 0 21.0094 0 20.6272C0 20.2458 0.139976 19.9154 0.419929 19.6361L8.62254 11.4506L0.391934 3.23726C0.130644 2.97652 0 2.6506 0 2.25948C0 1.86837 0.139976 1.53313 0.419929 1.25377C0.699882 0.9744 1.03135 0.834717 1.41432 0.834717C1.79655 0.834717 2.12764 0.9744 2.40759 1.25377L11.814 10.6684C11.926 10.7801 12.0055 10.9012 12.0525 11.0316C12.0988 11.1619 12.122 11.3016 12.122 11.4506C12.122 11.5996 12.0988 11.7393 12.0525 11.8697C12.0055 12 11.926 12.1211 11.814 12.2329L2.3796 21.6475C2.11831 21.9082 1.79655 22.0386 1.41432 22.0386C1.03135 22.0386 0.699882 21.8989 0.419929 21.6196Z" fill="white"/>
</svg>
