<svg width="28" height="26" viewBox="0 0 38 36" fill="none" xmlns="http://www.w3.org/2000/svg">
<path d="M32.0625 9.28135H25.7688C25.5509 7.72681 24.7444 6.30016 23.4993 5.26682C22.2542 4.23348 20.6553 3.66382 19 3.66382C17.3447 3.66382 15.7458 4.23348 14.5007 5.26682C13.2556 6.30016 12.4491 7.72681 12.2312 9.28135H5.9375C5.38635 9.28135 4.85777 9.48877 4.46804 9.85798C4.07832 10.2272 3.85938 10.728 3.85938 11.2501V29.2501C3.85938 29.7722 4.07832 30.273 4.46804 30.6422C4.85777 31.0114 5.38635 31.2189 5.9375 31.2189H32.0625C32.6137 31.2189 33.1422 31.0114 33.532 30.6422C33.9217 30.273 34.1406 29.7722 34.1406 29.2501V11.2501C34.1406 10.728 33.9217 10.2272 33.532 9.85798C33.1422 9.48877 32.6137 9.28135 32.0625 9.28135ZM19 5.34385C20.1841 5.3455 21.3302 5.74038 22.2387 6.4598C23.1473 7.17922 23.7608 8.17765 23.9727 9.28135H14.0273C14.2392 8.17765 14.8527 7.17922 15.7613 6.4598C16.6698 5.74038 17.8159 5.3455 19 5.34385ZM32.3594 29.2501C32.3594 29.3247 32.3281 29.3962 32.2724 29.449C32.2167 29.5017 32.1412 29.5314 32.0625 29.5314H5.9375C5.85876 29.5314 5.78325 29.5017 5.72758 29.449C5.6719 29.3962 5.64062 29.3247 5.64062 29.2501V11.2501C5.64062 11.1755 5.6719 11.104 5.72758 11.0512C5.78325 10.9985 5.85876 10.9689 5.9375 10.9689H32.0625C32.1412 10.9689 32.2167 10.9985 32.2724 11.0512C32.3281 11.104 32.3594 11.1755 32.3594 11.2501V29.2501Z" fill="white"/>
</svg>
