<svg width="28" height="26" viewBox="0 0 37 38" fill="none" xmlns="http://www.w3.org/2000/svg">
<path d="M18.5 32.9531C18.3527 32.9507 18.2085 32.9098 18.0809 32.8343C17.9219 32.7601 14.3375 30.6671 10.6953 27.3124C5.70899 22.696 3.17969 18.1093 3.17969 13.6562C3.17838 11.8138 3.75261 10.0195 4.81796 8.53713C5.88332 7.05476 7.38361 5.96251 9.0983 5.42091C10.813 4.87931 12.6516 4.91693 14.3439 5.52826C16.0363 6.13958 17.493 7.29236 18.5 8.81713C19.507 7.29236 20.9637 6.13958 22.6561 5.52826C24.3484 4.91693 26.187 4.87931 27.9017 5.42091C29.6164 5.96251 31.1167 7.05476 32.182 8.53713C33.2474 10.0195 33.8216 11.8138 33.8203 13.6562C33.8203 18.1093 31.291 22.696 26.3047 27.3124C22.6625 30.6671 19.0781 32.7601 18.9191 32.8343C18.7915 32.9098 18.6473 32.9507 18.5 32.9531ZM11.5625 6.82807C9.79923 6.82807 8.10817 7.54746 6.86135 8.82798C5.61452 10.1085 4.91406 11.8453 4.91406 13.6562C4.91406 22.1617 16.1586 29.5835 18.5 31.0234C20.8414 29.5835 32.0859 22.1617 32.0859 13.6562C32.0893 12.0751 31.5583 10.5419 30.5836 9.31809C29.6089 8.09429 28.2509 7.25581 26.7414 6.94574C25.2318 6.63567 23.6643 6.87323 22.3063 7.61787C20.9482 8.36251 19.8839 9.56808 19.2949 11.0288C19.2327 11.1934 19.1235 11.3349 18.9817 11.4346C18.8398 11.5343 18.6719 11.5877 18.5 11.5877C18.3281 11.5877 18.1602 11.5343 18.0184 11.4346C17.8765 11.3349 17.7673 11.1934 17.7051 11.0288C17.1997 9.78382 16.3466 8.72041 15.2534 7.97279C14.1602 7.22517 12.8759 6.82685 11.5625 6.82807Z" fill="white"/>
</svg>
