<svg width="144" height="14" viewBox="0 0 144 14" fill="none" xmlns="http://www.w3.org/2000/svg">
<path d="M4.69047 2.71858L0.781201 13.8999L11.3433 13.7638C11.3573 13.7636 11.4404 13.6925 11.5926 13.5506C11.7588 13.4084 11.9456 13.238 12.1531 13.0393C12.3603 12.8266 12.5675 12.6069 12.7746 12.3802C12.9957 12.1534 13.1682 11.9551 13.292 11.7855C13.3058 11.7713 13.3402 11.7219 13.3951 11.6372C13.45 11.5525 13.5048 11.4607 13.5596 11.362C13.6143 11.2633 13.6691 11.1716 13.724 11.0869C13.7788 10.9882 13.813 10.9247 13.8266 10.8966L5.78426 11.0002L6.22999 9.73433L10.4086 9.68049L13.3749 6.80703L8.52427 6.86953L6.55433 8.82707L7.70875 5.51493L14.1762 5.4316C14.2882 5.43015 14.4617 5.31591 14.6968 5.08886C14.9459 4.86163 15.1945 4.59241 15.4425 4.28119C15.7045 3.96979 15.9455 3.65865 16.1655 3.34779C16.3994 3.02275 16.564 2.76161 16.6595 2.56437L4.69047 2.71858ZM23.8338 10.0746L23.8322 9.94857C23.8308 9.83658 23.8083 9.72486 23.7649 9.61341C23.7213 9.48796 23.6435 9.42596 23.5315 9.4274L19.3318 9.48151C18.9119 9.48692 18.5326 9.3938 18.1941 9.20215C17.8554 8.99649 17.5581 8.7413 17.3022 8.43657C17.0601 8.11767 16.8736 7.77004 16.7427 7.39369C16.6118 7.01735 16.5441 6.64719 16.5394 6.28322C16.5351 5.94725 16.6282 5.56802 16.8187 5.14553C17.0091 4.70904 17.2559 4.29983 17.559 3.91789C17.8619 3.52195 18.2077 3.19547 18.5965 2.93844C18.985 2.66741 19.3753 2.52937 19.7672 2.52432L30.4763 2.38634C30.1605 2.86645 29.7957 3.34719 29.3818 3.82857C28.982 4.30976 28.5332 4.79158 28.0353 5.27403L21.1059 5.36331C20.9519 5.3653 20.8203 5.472 20.711 5.68343C20.6017 5.89485 20.5479 6.06356 20.5495 6.18955L20.5509 6.29454C20.551 6.30854 20.5795 6.34318 20.6362 6.39845C20.6927 6.43973 20.7352 6.47418 20.7635 6.50182C20.8203 6.55709 20.898 6.6121 20.9967 6.66683C21.1092 6.70738 21.1725 6.72757 21.1865 6.72739L25.1762 6.67598C25.6241 6.67021 26.0105 6.77724 26.3354 6.99708C26.6601 7.20291 26.9226 7.47255 27.1229 7.806C27.337 8.12527 27.4955 8.47325 27.5984 8.84996C27.7012 9.22666 27.7547 9.576 27.7589 9.89798L27.7605 10.024C27.7652 10.3879 27.6863 10.781 27.5237 11.2031C27.3609 11.6112 27.1418 11.9921 26.8663 12.3457C26.6049 12.6991 26.2937 12.9971 25.9328 13.2398C25.5857 13.4683 25.2232 13.585 24.8452 13.5898L14.1361 13.7278C14.2043 13.5869 14.3414 13.3611 14.5474 13.0504C14.7674 12.7396 14.9944 12.4286 15.2284 12.1176C15.4763 11.7924 15.7036 11.5094 15.9106 11.2687C16.1173 11.0141 16.2417 10.8864 16.2837 10.8859L23.4231 10.7939C23.633 10.7912 23.7512 10.7267 23.7776 10.6003C23.818 10.4738 23.8373 10.3405 23.8355 10.2005L23.8338 10.0746ZM31.0978 13.5093L35.1294 13.4573L38.0463 5.12405L40.5241 5.09212C40.6361 5.09068 40.8096 4.97643 41.0447 4.74938C41.2938 4.52216 41.5424 4.25293 41.7904 3.94171C42.0524 3.63031 42.2934 3.31918 42.5134 3.00832C42.7473 2.68328 42.9119 2.42214 43.0074 2.22489L32.4872 2.36043C32.2929 2.48895 32.0576 2.702 31.7814 2.99958C31.5191 3.28299 31.2569 3.58039 30.9949 3.89179C30.7468 4.20301 30.5265 4.48587 30.3337 4.74038C30.155 4.9947 30.059 5.14995 30.0457 5.20613L30.046 5.22712L34.0146 5.17599L31.0978 13.5093ZM42.4839 6.89402L44.0827 2.21103L48.0514 2.1599C47.5798 3.5941 47.2162 4.71187 46.9605 5.51323C46.7046 6.3006 46.5162 6.89107 46.3953 7.28466C46.2743 7.67825 46.2006 7.93122 46.174 8.04358C46.1473 8.14193 46.1342 8.2121 46.1347 8.2541C46.0684 8.53498 46.0362 8.75941 46.0384 8.9274C46.0447 9.41736 46.1687 9.80079 46.4103 10.0777C46.6517 10.3406 46.9683 10.4695 47.3603 10.4645L48.3892 10.4512C48.7252 10.4469 49.0323 10.3729 49.3104 10.2294C49.6026 10.0856 49.8593 9.90725 50.0806 9.69438C50.3019 9.48152 50.495 9.25501 50.6599 9.01486C50.8248 8.77472 50.955 8.55602 51.0505 8.35878L53.238 2.09308L57.2276 2.04167L55.4046 7.25259C55.0671 8.22302 54.7211 9.08155 54.3667 9.82818C54.0121 10.5608 53.6071 11.1821 53.1516 11.692C52.6961 12.2019 52.1691 12.5937 51.5706 12.8675C50.9719 13.1272 50.2526 13.2625 49.4127 13.2733L46.9559 13.3049C45.976 13.3176 45.1563 13.2721 44.4969 13.1686C43.8515 13.0649 43.3313 12.8966 42.9363 12.6637C42.5411 12.4167 42.2569 12.0984 42.0839 11.7086C41.9109 11.3188 41.8207 10.8439 41.8135 10.2839C41.8115 10.13 41.8165 9.96888 41.8283 9.80071C41.8541 9.63236 41.8798 9.45002 41.9053 9.25367C41.9706 8.8888 42.0499 8.52375 42.1432 8.15852C42.2505 7.7931 42.3641 7.37161 42.4839 6.89402ZM68.7213 7.96309C68.1591 8.88041 67.5741 9.66501 66.9665 10.3169C66.3727 10.9546 65.7214 11.481 65.0127 11.8962C64.304 12.3114 63.5169 12.6225 62.6515 12.8297C61.7859 13.0229 60.8072 13.1265 59.7153 13.1405L54.4867 13.2079L58.396 2.02662L67.5302 1.90893C68.3702 1.89811 68.9821 2.12124 69.366 2.57833C69.7499 3.03543 69.9465 3.62094 69.9557 4.33488C69.9627 4.88084 69.8654 5.47714 69.6637 6.12379C69.4618 6.75645 69.1477 7.36954 68.7213 7.96309ZM61.4772 4.82215L59.5528 10.3074L60.0987 10.3004C60.4347 10.296 60.8258 10.221 61.2719 10.0752C61.7179 9.91548 62.1633 9.71372 62.6082 9.46997C63.0531 9.22622 63.4627 8.95492 63.8368 8.65607C64.2108 8.34323 64.4938 8.03156 64.6859 7.72106C64.7544 7.60816 64.8438 7.481 64.954 7.33957C65.0642 7.19814 65.1531 7.03598 65.2207 6.85309C65.3018 6.62803 65.383 6.40997 65.4643 6.1989C65.5596 5.98766 65.6061 5.79104 65.6037 5.60906C65.6007 5.37108 65.5421 5.17581 65.4282 5.02327C65.328 4.85655 65.1449 4.7749 64.879 4.77832L61.4772 4.82215ZM68.2028 13.0312L78.681 12.8962C78.793 12.8947 78.9665 12.7805 79.2016 12.5534C79.4507 12.3262 79.6992 12.057 79.9472 11.7458C80.2093 11.4344 80.4503 11.1232 80.6703 10.8124C80.9041 10.4873 81.0688 10.2262 81.1642 10.029L77.1956 10.0801L79.1201 4.59484L81.5978 4.56291C81.7098 4.56147 81.8834 4.44722 82.1185 4.22018C82.3676 3.99295 82.6161 3.72372 82.8641 3.4125C83.1261 3.1011 83.3672 2.78997 83.5872 2.47911C83.821 2.15407 83.9856 1.89293 84.0811 1.69568L73.561 1.83123C73.3666 1.95974 73.1314 2.17279 72.8552 2.47037C72.5928 2.75378 72.3306 3.05118 72.0686 3.36258C71.8206 3.6738 71.6002 3.95666 71.4075 4.21117C71.2287 4.46549 71.1327 4.62074 71.1194 4.67692L71.1197 4.69792L75.0884 4.64678L73.1639 10.132L70.6441 10.1645C70.4497 10.293 70.2145 10.5061 69.9383 10.8036C69.6759 11.087 69.4137 11.3845 69.1517 11.6959C68.9037 12.0071 68.6833 12.2899 68.4906 12.5444C68.3118 12.7988 68.2158 12.954 68.2026 13.0102L68.2028 13.0312ZM96.661 6.63702C96.7389 6.15998 96.7751 5.71147 96.7697 5.29151C96.7524 3.94762 96.299 2.99438 95.4097 2.43179C94.5342 1.85502 93.2495 1.57755 91.5557 1.59938L88.7839 1.63509C88.042 1.64465 87.3092 1.8221 86.5856 2.16745C85.876 2.51263 85.2238 2.96907 84.6291 3.53677C84.0341 4.09049 83.5384 4.73393 83.1418 5.4671C82.7452 6.20027 82.496 6.95954 82.3941 7.74492C82.3686 7.94126 82.3501 8.13052 82.3384 8.31268C82.3267 8.49485 82.322 8.66992 82.3242 8.83791C82.3343 9.62184 82.4756 10.2711 82.7483 10.7856C83.0349 11.3 83.4182 11.7081 83.8982 12.0099C84.3779 12.2977 84.9476 12.5004 85.6071 12.6179C86.2667 12.7354 86.9815 12.7892 87.7514 12.7793L89.8512 12.7523C90.6771 12.7416 91.473 12.5704 92.2388 12.2385C93.0186 11.9064 93.7129 11.4634 94.3218 10.9095C94.9448 10.3554 95.4615 9.71173 95.8721 8.97838C96.2827 8.24503 96.5457 7.46458 96.661 6.63702ZM86.338 7.40008C86.3505 7.28791 86.3839 7.16147 86.4381 7.02076C86.4921 6.86605 86.553 6.70425 86.6209 6.53536C86.7438 6.29576 86.9087 6.05561 87.1156 5.81493C87.3363 5.56006 87.5714 5.33302 87.8209 5.13379C88.0704 4.93456 88.3203 4.77732 88.5709 4.66208C88.8352 4.53267 89.0794 4.46652 89.3034 4.46363L91.0042 4.44172C91.3542 4.43721 91.6349 4.4896 91.8463 4.59888C92.0716 4.69399 92.2484 4.83172 92.3767 5.01208C92.5049 5.17845 92.5914 5.37335 92.6363 5.59679C92.6811 5.82023 92.705 6.04394 92.7079 6.26792C92.7095 6.39391 92.7042 6.51999 92.6918 6.64616C92.6932 6.75815 92.6877 6.87023 92.6751 6.9824C92.6749 6.9684 92.6617 7.03158 92.6356 7.17193L92.5543 7.38299C92.5277 7.49534 92.4527 7.65032 92.3292 7.84793C92.2063 8.08753 92.0205 8.33495 91.7718 8.59017C91.5228 8.8314 91.2597 9.05181 90.9822 9.2514C90.7048 9.45099 90.4339 9.61549 90.1695 9.74491C89.919 9.86015 89.7237 9.91867 89.5837 9.92047L88.1978 9.93833C87.9458 9.94158 87.707 9.87465 87.4812 9.73755C87.2554 9.60044 87.0571 9.42098 86.8862 9.19917C86.7153 8.97735 86.5792 8.73408 86.4778 8.46937C86.3762 8.19065 86.3237 7.92531 86.3205 7.67333L86.3189 7.54734C86.3178 7.46334 86.3242 7.41426 86.338 7.40008ZM115.978 10.9455C115.923 11.0582 115.897 11.2196 115.9 11.4296C115.904 11.7235 116.005 11.9602 116.203 12.1397C116.416 12.319 116.704 12.4063 117.068 12.4016C117.292 12.3987 117.515 12.3608 117.738 12.2879C117.961 12.2011 118.163 12.0935 118.343 11.9651C118.634 11.7514 118.862 11.4964 119.026 11.2003C119.191 10.9041 119.271 10.6371 119.268 10.3991C119.265 10.1191 119.157 9.88947 118.944 9.7102C118.746 9.51674 118.464 9.42235 118.101 9.42704C117.653 9.43281 117.227 9.5853 116.825 9.88451C116.423 10.1837 116.141 10.5374 115.978 10.9455Z" fill="black" fill-opacity="0.87"/>
<path d="M106.528 9.57615C106.529 9.67414 106.607 9.72215 106.761 9.72016L115.265 9.61059C115.265 9.61059 115.182 9.72366 115.017 9.94981C114.852 10.162 114.645 10.4166 114.397 10.7139C114.163 11.0109 113.908 11.3222 113.632 11.6478C113.37 11.9732 113.129 12.2423 112.907 12.4552L103.353 12.5783C102.947 12.5835 102.645 12.4614 102.445 12.212C102.26 11.9483 102.165 11.6275 102.16 11.2496C102.155 10.8996 102.221 10.5277 102.356 10.1339C102.49 9.74018 102.682 9.35968 102.929 8.99247C103.149 8.68161 103.459 8.33458 103.861 7.95138C104.262 7.56818 104.691 7.21262 105.149 6.88469C105.607 6.54277 106.072 6.26375 106.545 6.04763C107.018 5.81752 107.437 5.70012 107.801 5.69543L111.79 5.64402C111.804 5.64384 111.895 5.60767 112.062 5.53551C112.229 5.44936 112.361 5.37765 112.458 5.32039C112.514 5.29167 112.584 5.25577 112.667 5.21269C112.75 5.15562 112.792 5.12008 112.792 5.10608L112.874 5.00001C113.012 4.85821 113.08 4.66833 113.077 4.43035C113.075 4.26236 113.011 4.17918 112.885 4.1808L104.527 4.28848C104.664 4.0627 104.829 3.82255 105.022 3.56805C105.229 3.29936 105.442 3.03759 105.663 2.78272C105.898 2.52768 106.126 2.28672 106.347 2.05986C106.568 1.81899 106.775 1.5993 106.968 1.40079L116.25 1.28121C116.684 1.27562 117.001 1.42555 117.2 1.731C117.414 2.03627 117.524 2.41288 117.53 2.86085C117.535 3.22482 117.477 3.5966 117.355 3.97619C117.248 4.3416 117.085 4.68674 116.865 5.0116C116.617 5.36481 116.286 5.74011 115.871 6.13749C115.47 6.52069 115.027 6.88343 114.541 7.22572C114.069 7.55382 113.583 7.82611 113.081 8.04259C112.594 8.25888 112.148 8.36965 111.742 8.37488L107.542 8.42899C107.43 8.43043 107.319 8.48087 107.208 8.5803C107.097 8.66574 107 8.76499 106.918 8.87807L106.528 9.57615Z" fill="#D56D0D"/>
<path d="M125.488 12.2931L129.397 1.11181L125.093 1.16727C124.898 1.29579 124.663 1.50884 124.387 1.80642C124.125 2.08982 123.862 2.38722 123.6 2.69863C123.352 3.00985 123.132 3.29271 122.939 3.54721C122.761 3.80154 122.665 3.95679 122.651 4.01296L122.652 4.03396L124.373 4.01178L121.457 12.345L125.488 12.2931ZM136.039 9.34293L128.9 9.43491C128.858 9.43545 128.733 9.56307 128.527 9.81775C128.32 10.0584 128.092 10.3414 127.845 10.6666C127.611 10.9777 127.384 11.2886 127.164 11.5995C126.958 11.9101 126.82 12.1359 126.752 12.2768L137.461 12.1388C137.839 12.134 138.202 12.0173 138.549 11.7888C138.91 11.5461 139.221 11.2481 139.482 10.8947C139.758 10.5411 139.977 10.1603 140.14 9.75213C140.302 9.33 140.381 8.93695 140.377 8.57298L140.376 8.48899C140.372 8.18101 140.304 7.83885 140.173 7.46251C140.042 7.08616 139.856 6.73854 139.614 6.41963C139.386 6.10054 139.116 5.83799 138.806 5.63198C138.495 5.41196 138.157 5.3043 137.793 5.30899L133.804 5.3604C133.79 5.36058 133.726 5.32639 133.613 5.25784C133.514 5.17511 133.436 5.10611 133.38 5.05083C133.351 5.0232 133.309 4.98874 133.252 4.94746C133.196 4.89219 133.167 4.85755 133.167 4.84356L133.166 4.73856L133.449 3.91584L140.651 3.82305C141.149 3.34059 141.598 2.85877 141.998 2.37758C142.412 1.89621 142.777 1.41547 143.092 0.935358L130.472 1.09796L129.155 4.83224C129.142 4.90241 129.129 4.97258 129.116 5.04276C129.117 5.09875 129.118 5.16175 129.119 5.23174C129.123 5.56772 129.218 5.90952 129.405 6.25714C129.591 6.60477 129.819 6.91686 130.089 7.19341C130.373 7.46977 130.677 7.69688 131.001 7.87471C131.339 8.03837 131.655 8.11831 131.949 8.11452L136.149 8.06041C136.261 8.05897 136.338 8.10697 136.382 8.20442C136.425 8.28787 136.447 8.38559 136.448 8.49758C136.452 8.77756 136.316 9.05934 136.039 9.34293Z" fill="#7BB69D"/>
</svg>
