<svg width="31" height="29" viewBox="0 0 31 29" fill="none" xmlns="http://www.w3.org/2000/svg">
<path d="M1.98631 27.6564L2.11539 27.7328C3.46943 25.4454 5.4193 23.5451 7.76906 22.2236C10.1188 20.902 12.7853 20.206 15.5 20.206C18.2146 20.206 20.8811 20.902 23.2309 22.2236C25.5807 23.5451 27.5305 25.4454 28.8846 27.7328L28.8846 27.7328L28.8858 27.7348C28.9517 27.8424 29.0448 27.9311 29.1557 27.9928C29.2666 28.0544 29.3916 28.087 29.5188 28.0876V28.0877L29.5223 28.0876C29.6449 28.0853 29.7655 28.056 29.8752 28.0017L29.8753 28.002L29.8836 27.9972C30.049 27.9016 30.1709 27.7465 30.2222 27.5637C30.2734 27.3808 30.2495 27.1858 30.156 27.0201L30.156 27.0201L30.1542 27.017C28.9842 25.0551 27.4119 23.3487 25.5355 22.0038C23.7828 20.7476 21.7996 19.8319 19.6946 19.3048C21.6447 18.4254 23.2557 16.9541 24.2809 15.1051C25.3797 13.1233 25.737 10.8312 25.2912 8.62103C24.8454 6.41089 23.6245 4.42093 21.8384 2.99096C20.0523 1.56105 17.8118 0.779687 15.5 0.779687C13.1882 0.779687 10.9477 1.56105 9.16161 2.99096C7.37545 4.42093 6.15456 6.41089 5.70878 8.62103C5.26299 10.8312 5.62025 13.1233 6.71905 15.1051C7.74425 16.9541 9.35527 18.4254 11.3054 19.3048C9.20034 19.8319 7.21721 20.7476 5.46451 22.0038C3.58806 23.3487 2.01581 25.0551 0.845764 27.017H0.845761L0.84525 27.0179C0.748057 27.1834 0.722203 27.3802 0.773925 27.5648C0.825614 27.7492 0.950103 27.9048 1.1185 27.9984C1.28677 28.092 1.48583 28.1165 1.67222 28.067C1.85869 28.0175 2.01856 27.8977 2.11565 27.7323L1.98631 27.6564ZM1.98631 27.6564C1.90965 27.7869 1.78283 27.8825 1.63375 27.922C1.48467 27.9616 1.32555 27.9419 1.19139 27.8673C1.05723 27.7927 0.959015 27.6693 0.918358 27.5243C0.877701 27.3792 0.897929 27.2244 0.974593 27.0939L19.4677 19.4038C21.6254 19.918 23.6581 20.8428 25.4481 22.1258C27.3079 23.4588 28.866 25.1499 30.0254 27.0939C30.0994 27.225 30.1182 27.3789 30.0777 27.5232C30.0373 27.6676 29.9408 27.7909 29.8086 27.8673C29.7189 27.9117 29.6201 27.9358 29.5195 27.9376C29.4174 27.9371 29.3172 27.9109 29.2286 27.8617C29.14 27.8124 29.0659 27.7417 29.0137 27.6564C27.646 25.346 25.6768 23.4271 23.3044 22.0928C20.9321 20.7585 18.2402 20.056 15.5 20.056C12.7598 20.056 10.0679 20.7585 7.69553 22.0928C5.32313 23.4271 3.35396 25.346 1.98631 27.6564ZM6.97811 10.5001C6.97811 8.86194 7.47736 7.26019 8.41323 5.89741C9.34914 4.53458 10.6798 3.47177 12.2375 2.84401C13.7951 2.21624 15.5094 2.05193 17.1633 2.37201C18.8171 2.69209 20.3358 3.48207 21.5273 4.64142C22.7188 5.80072 23.5298 7.27726 23.8583 8.88409C24.1868 10.4909 24.0182 12.1564 23.3737 13.6703C22.7292 15.1841 21.6376 16.4787 20.2361 17.3899C18.8345 18.3011 17.1863 18.7876 15.5 18.7876C13.2385 18.7876 11.0705 17.9135 9.47264 16.3588C7.87492 14.8043 6.97811 12.6968 6.97811 10.5001Z" fill="white" stroke="white" stroke-width="0.3"/>
</svg>
