<svg width="28" height="26" viewBox="0 0 37 36" fill="none" xmlns="http://www.w3.org/2000/svg">
<path d="M33.9222 32.0895C32.6914 30.0024 31.0374 28.1869 29.0629 26.7558C27.0885 25.3247 24.8358 24.3086 22.4452 23.7709C24.6843 22.8715 26.5363 21.2347 27.6846 19.1404C28.8328 17.046 29.206 14.6243 28.7403 12.2891C28.2745 9.95404 26.9988 7.85065 25.1313 6.33866C23.2637 4.82668 20.9203 4 18.5019 4C16.0834 4 13.74 4.82668 11.8725 6.33866C10.0049 7.85065 8.72922 9.95404 8.26348 12.2891C7.79774 14.6243 8.1709 17.046 9.31916 19.1404C10.4674 21.2347 12.3194 22.8715 14.5585 23.7709C12.1679 24.3086 9.91528 25.3247 7.94082 26.7558C5.96636 28.1869 4.31229 30.0024 3.0815 32.0895C3.00011 32.2296 2.97863 32.3958 3.0218 32.5515C3.06496 32.7073 3.16922 32.8397 3.31165 32.9198C3.45408 32.9999 3.62301 33.021 3.78127 32.9786C3.93953 32.9361 4.07416 32.8335 4.15555 32.6934C5.60747 30.213 7.69797 28.1529 10.2165 26.7204C12.7351 25.2879 15.5928 24.5337 18.5019 24.5337C21.4109 24.5337 24.2686 25.2879 26.7872 26.7204C29.3058 28.1529 31.3963 30.213 32.8482 32.6934C32.9037 32.7849 32.9823 32.8608 33.0764 32.9137C33.1705 32.9667 33.2768 32.9947 33.3852 32.9953C33.492 32.9933 33.5969 32.9675 33.6921 32.9198C33.8324 32.8378 33.9349 32.7054 33.9778 32.5504C34.0208 32.3955 34.0008 32.2302 33.9222 32.0895ZM9.29568 14.2747C9.29568 12.4831 9.83561 10.7317 10.8472 9.24211C11.8588 7.75247 13.2966 6.59143 14.9788 5.90583C16.661 5.22022 18.5121 5.04083 20.2979 5.39035C22.0837 5.73987 23.7241 6.6026 25.0116 7.86943C26.2991 9.13627 27.1759 10.7503 27.5312 12.5075C27.8864 14.2646 27.7041 16.086 27.0073 17.7412C26.3105 19.3964 25.1305 20.8111 23.6166 21.8064C22.1026 22.8018 20.3227 23.333 18.5019 23.333C16.0602 23.333 13.7186 22.3787 11.9921 20.6799C10.2656 18.9811 9.29568 16.6771 9.29568 14.2747Z" fill="white" stroke="white" stroke-width="0.06"/>
</svg>
