<svg width="28" height="26" viewBox="0 0 37 36" fill="none" xmlns="http://www.w3.org/2000/svg">
<path d="M33.156 30.0201L33.156 30.0201C33.2495 30.1858 33.2735 30.3808 33.2222 30.5637C33.1709 30.7465 33.049 30.9016 32.8836 30.9972L32.8753 31.002L32.8752 31.0017C32.7655 31.056 32.6449 31.0853 32.5223 31.0876L32.5188 31.0877V31.0876C32.3916 31.087 32.2666 31.0544 32.1557 30.9928C32.0448 30.9311 31.9517 30.8424 31.8858 30.7348L31.8846 30.7328L31.8846 30.7328C30.5305 28.4454 28.5807 26.5451 26.2309 25.2236C23.8811 23.902 21.2146 23.206 18.5 23.206C15.7853 23.206 13.1188 23.902 10.7691 25.2236C8.4193 26.5451 6.46943 28.4454 5.11539 30.7328L4.98631 30.6564M33.156 30.0201L3.97459 30.0939C5.13395 28.1499 6.69202 26.4588 8.55189 25.1258C10.3419 23.8428 12.3745 22.918 14.5322 22.4038C14.4561 22.3717 14.3805 22.3387 14.3054 22.3048M33.156 30.0201L33.1542 30.017C31.9842 28.0551 30.4119 26.3487 28.5355 25.0038C26.7828 23.7476 24.7996 22.8319 22.6946 22.3048M33.156 30.0201L22.6946 22.3048M4.98631 30.6564L5.11566 30.7323C5.01856 30.8977 4.85869 31.0175 4.67223 31.067L4.63375 30.922L4.67222 31.067C4.48583 31.1165 4.28677 31.092 4.1185 30.9984C3.9501 30.9048 3.82561 30.7492 3.77392 30.5648C3.7222 30.3802 3.74806 30.1834 3.84525 30.0179L3.84576 30.017H3.84576C5.01581 28.0551 6.58806 26.3487 8.46451 25.0038C10.2172 23.7476 12.2003 22.8319 14.3054 22.3048M4.98631 30.6564C6.35396 28.346 8.32314 26.4271 10.6955 25.0928C13.0679 23.7585 15.7598 23.056 18.5 23.056C21.2402 23.056 23.9321 23.7585 26.3044 25.0928C28.6768 26.4271 30.646 28.346 32.0137 30.6564H4.98631ZM14.3054 22.3048C12.3553 21.4254 10.7442 19.9541 9.71905 18.1051C8.62025 16.1233 8.26299 13.8312 8.70878 11.621C9.15456 9.41089 10.3755 7.42093 12.1616 5.99096C13.9477 4.56105 16.1882 3.77969 18.5 3.77969C20.8118 3.77969 23.0523 4.56105 24.8384 5.99096C26.6245 7.42093 27.8454 9.41089 28.2912 11.621C28.737 13.8312 28.3797 16.1233 27.2809 18.1051C26.2557 19.9541 24.6447 21.4254 22.6946 22.3048M14.3054 22.3048C14.3852 22.2848 14.4653 22.2654 14.5455 22.2465C12.5441 21.3907 10.8905 19.9086 9.85023 18.0323C8.76862 16.0815 8.41711 13.8257 8.85582 11.6507C9.29453 9.47563 10.4962 7.51641 12.2554 6.10806C14.0145 4.6997 16.2219 3.92969 18.5 3.92969C20.7781 3.92969 22.9855 4.6997 24.7446 6.10806C26.5038 7.51641 27.7054 9.47563 28.1441 11.6507C28.5829 13.8257 28.2313 16.0815 27.1497 18.0323C26.1094 19.9086 24.4558 21.3907 22.4544 22.2465C22.5347 22.2654 22.6147 22.2848 22.6946 22.3048M22.6946 22.3048C22.6195 22.3387 22.5439 22.3717 22.4678 22.4038M22.6946 22.3048L22.4678 22.4038M22.4678 22.4038C24.6254 22.918 26.6581 23.8428 28.4481 25.1258C30.3079 26.4588 31.866 28.1499 33.0254 30.0939C33.0994 30.225 33.1182 30.3789 33.0777 30.5232C33.0373 30.6676 32.9408 30.7909 32.8086 30.8673L22.4678 22.4038ZM9.97811 13.5001C9.97811 11.8619 10.4774 10.2602 11.4132 8.89741C12.3491 7.53458 13.6798 6.47177 15.2375 5.84401C16.7951 5.21624 18.5094 5.05193 20.1633 5.37201C21.8171 5.69209 23.3358 6.48207 24.5273 7.64142C25.7188 8.80072 26.5298 10.2773 26.8583 11.8841C27.1868 13.4909 27.0182 15.1564 26.3737 16.6703C25.7292 18.1841 24.6376 19.4787 23.2361 20.3899C21.8345 21.3011 20.1864 21.7876 18.5 21.7876C16.2385 21.7876 14.0705 20.9135 12.4726 19.3588C10.8749 17.8043 9.97811 15.6968 9.97811 13.5001Z" fill="white" stroke="white" stroke-width="0.3"/>
</svg>
